<svg id="Good_design_award" data-name="Good_design_award" xmlns="http://www.w3.org/2000/svg" xmlns:xlink="http://www.w3.org/1999/xlink" width="167" height="39.818" viewBox="0 0 167 39.818">
  <defs>
    <clipPath id="clip-path">
      <rect id="Rectangle_400" data-name="Rectangle 400" width="167" height="39.818" fill="none"/>
    </clipPath>
  </defs>
  <g id="Group_1426" data-name="Group 1426" transform="translate(0 0)" clip-path="url(#clip-path)">
    <path id="Path_565" data-name="Path 565" d="M0,19.907,19.912,0A19.91,19.91,0,0,0,0,19.907" transform="translate(-0.001 0)" fill="#fff"/>
    <path id="Path_566" data-name="Path 566" d="M19.911,58.776,0,38.866a19.911,19.911,0,0,0,19.911,19.91" transform="translate(0 -18.959)" fill="#fff"/>
    <path id="Path_567" data-name="Path 567" d="M19.44,19.907l9.955,9.958,9.955-9.958-2.49-2.487L31.881,22.4,26.906,17.42l9.953-9.954,12.447,12.44A19.909,19.909,0,0,0,29.395,0l4.976,4.977Z" transform="translate(-9.483 0)" fill="#fff"/>
    <path id="Path_568" data-name="Path 568" d="M38.874,58.776a19.911,19.911,0,0,0,19.911-19.91Z" transform="translate(-18.963 -18.959)" fill="#fff"/>
    <path id="Path_569" data-name="Path 569" d="M197.638,28.609c0-2.883-2.321-3.946-4.237-3.905s-4.113,1.143-4.113,4.571H191.8c0-1.51.658-2.134,1.626-2.177a1.486,1.486,0,0,1,1.659,1.6c0,1.341-1.484,2.937-5.681,8.275v2.333h8.018V36.9h-4.855c1.847-2.353,3.312-4.2,4.239-5.66a4.9,4.9,0,0,0,.834-2.634m7.011-3.905a3.811,3.811,0,0,0-4.182,3.458,33.35,33.35,0,0,0-.122,3.995,33.25,33.25,0,0,0,.122,3.991,4.258,4.258,0,0,0,8.365,0,33.194,33.194,0,0,0,.119-3.991,33.293,33.293,0,0,0-.119-3.995,3.811,3.811,0,0,0-4.184-3.458M206.3,35.732a1.679,1.679,0,0,1-3.31,0c-.075-.471-.077-1.7-.077-3.575s0-3.1.077-3.574a1.679,1.679,0,0,1,3.31,0c.067.471.074,1.7.074,3.574s-.007,3.1-.074,3.575m-31.051-7.123c0-2.883-2.317-3.946-4.234-3.905s-4.114,1.143-4.114,4.571h2.509c0-1.51.661-2.134,1.627-2.177a1.485,1.485,0,0,1,1.659,1.6c0,1.341-1.484,2.937-5.682,8.275v2.333h8.02V36.9h-4.856c1.847-2.353,3.314-4.2,4.239-5.66a4.885,4.885,0,0,0,.833-2.634m7.011-3.905a3.811,3.811,0,0,0-4.182,3.458,33.627,33.627,0,0,0-.121,3.995,33.527,33.527,0,0,0,.121,3.991,4.258,4.258,0,0,0,8.365,0,33,33,0,0,0,.118-3.991,33.1,33.1,0,0,0-.118-3.995,3.811,3.811,0,0,0-4.184-3.458m1.655,11.028a1.678,1.678,0,0,1-3.308,0c-.074-.471-.075-1.7-.075-3.575s0-3.1.075-3.574a1.678,1.678,0,0,1,3.308,0c.07.471.077,1.7.077,3.574s-.007,3.1-.077,3.575m-64.616-1-1.524-9.709H115l-1.525,9.709-1.713-9.709h-2.541l2.723,14.26h2.89l1.558-9.922,1.4,9.922h2.91l2.853-14.26H121Zm39.439-7.5c-.66-1.446-2.081-2.207-4.317-2.207h-3.792V39.288h3.792c2.237,0,3.658-.756,4.317-2.2.547-1.2.681-2.1.681-4.925s-.134-3.726-.681-4.923M156.6,35.53c-.233.641-.7,1.359-2.294,1.359l-1.1-.009V27.44l1.1-.009c1.593,0,2.061.716,2.294,1.358a10.617,10.617,0,0,1,.248,3.37,10.618,10.618,0,0,1-.248,3.371m-9.346-6.084c0-2.846-1.562-4.418-4.507-4.418h-4.543v14.26h2.65V33.859h1.769l2.1,5.429h2.855l-2.388-5.925a3.99,3.99,0,0,0,2.062-3.917m-4.631,2.067-1.769,0V27.38l1.769,0c1.429,0,1.971.721,1.971,2.07s-.543,2.067-1.971,2.067m-14.187-6.484-3.56,14.259h2.652l.629-2.691h3.974l.628,2.691h2.651l-3.556-14.259Zm.264,9.247,1.443-6.176,1.444,6.176Zm-27.779-9.247L97.364,39.288h2.652l.627-2.691h3.974l.631,2.691H107.9l-3.557-14.259Zm.266,9.247,1.443-6.176,1.445,6.176ZM177.3,5.865a1.539,1.539,0,0,1,1.723-1.536,1.757,1.757,0,0,1,1.813,1.957h2.483a4.054,4.054,0,0,0-4.3-4.345c-2.18,0-4.333,1.343-4.333,3.923,0,4.134,6.176,4.274,6.176,7.165a1.689,1.689,0,0,1-1.9,1.681,2.153,2.153,0,0,1-2.138-2.214h-2.535a4.494,4.494,0,0,0,4.673,4.653c2.2,0,4.509-1.172,4.509-4.119,0-4.431-6.175-4.7-6.175-7.165M155.768,2.416h-3.791v14.26h3.791c2.237,0,3.657-.76,4.318-2.207.547-1.2.681-2.1.681-4.924s-.134-3.727-.681-4.925c-.661-1.446-2.081-2.2-4.318-2.2m2.177,10.5c-.235.64-.7,1.356-2.3,1.356l-1.1-.007V4.825l1.1-.01c1.592,0,2.061.719,2.3,1.359a10.778,10.778,0,0,1,.245,3.371,10.786,10.786,0,0,1-.245,3.371m54.061-10.5V11.45l-3.541-9.034h-3.018V16.673h2.487V6.889l3.916,9.784h2.644V2.416ZM186.762,16.674h2.649V2.416h-2.649ZM166.712,10.69h4.309V8.282h-4.309V4.824h4.876V2.416h-7.453V16.674h7.614v-2.41h-5.038Zm30.784.622H199.3c-.009.932,0,1.641-.053,1.966a1.53,1.53,0,0,1-1.762,1.394,1.614,1.614,0,0,1-1.8-1.394c-.074-.474-.079-1.852-.079-3.725s0-3.253.079-3.729a1.766,1.766,0,0,1,3.453.008c.032.2.053.719.065,1.163h2.581a11.533,11.533,0,0,0-.091-1.585,3.859,3.859,0,0,0-4.227-3.459c-2.985,0-4.123,1.77-4.385,3.459a35.551,35.551,0,0,0-.125,4.144,35.545,35.545,0,0,0,.125,4.143,3.969,3.969,0,0,0,4.183,3.458,3.154,3.154,0,0,0,2.823-1.441l.359.97h1.38V11.312h0V9.06H197.5Zm-94.856,0h1.806c-.008.932,0,1.641-.051,1.966a1.535,1.535,0,0,1-1.766,1.394,1.612,1.612,0,0,1-1.8-1.394c-.077-.475-.078-1.852-.078-3.726s0-3.252.078-3.728a1.767,1.767,0,0,1,3.454.008c.027.2.05.719.064,1.161h2.579a12.157,12.157,0,0,0-.089-1.584,3.863,3.863,0,0,0-4.229-3.459c-2.983,0-4.124,1.77-4.385,3.459A35.08,35.08,0,0,0,98.1,9.552a35.108,35.108,0,0,0,.125,4.144,3.973,3.973,0,0,0,4.183,3.458,3.146,3.146,0,0,0,2.823-1.442l.361.971h1.38V9.06h-4.334ZM114.933,1.95c-2.982,0-4.195,1.77-4.458,3.459a35.078,35.078,0,0,0-.125,4.143,35.107,35.107,0,0,0,.125,4.144c.263,1.687,1.476,3.458,4.458,3.458s4.2-1.771,4.462-3.458a35.863,35.863,0,0,0,.124-4.144,35.833,35.833,0,0,0-.124-4.143c-.267-1.689-1.476-3.459-4.462-3.459m1.856,11.328a1.931,1.931,0,0,1-3.709,0C113,12.8,113,11.426,113,9.552s0-3.252.081-3.728a1.932,1.932,0,0,1,3.709,0c.073.476.076,1.855.076,3.728s0,3.251-.076,3.726M127.372,1.94c-2.984,0-4.2,1.773-4.459,3.459a34.894,34.894,0,0,0-.126,4.146,34.865,34.865,0,0,0,.126,4.144c.263,1.686,1.475,3.458,4.459,3.458s4.193-1.772,4.458-3.458a35.264,35.264,0,0,0,.127-4.144A35.293,35.293,0,0,0,131.83,5.4c-.265-1.686-1.478-3.459-4.458-3.459m1.855,11.329a1.932,1.932,0,0,1-3.71,0c-.073-.472-.08-1.854-.08-3.724s.007-3.255.08-3.727a1.932,1.932,0,0,1,3.71,0c.075.473.078,1.855.078,3.727s0,3.252-.078,3.724m9.992-10.853h-3.792V16.675h3.792c2.234,0,3.656-.759,4.317-2.208.547-1.2.68-2.1.68-4.922s-.133-3.727-.68-4.925c-.661-1.447-2.083-2.2-4.317-2.2m2.177,10.5c-.233.64-.7,1.356-2.3,1.356l-1.1-.008V4.826l1.1-.011c1.595,0,2.065.719,2.3,1.359a10.785,10.785,0,0,1,.244,3.371,10.807,10.807,0,0,1-.244,3.371" transform="translate(-47.494 -0.946)" fill="#fff"/>
  </g>
</svg>
