<svg id="Logo" data-name="Logo" xmlns="http://www.w3.org/2000/svg" xmlns:xlink="http://www.w3.org/1999/xlink" width="350" height="76.732" viewBox="0 0 350 76.732">
  <defs>
    <clipPath id="clip-path">
      <rect id="Rectangle_401" data-name="Rectangle 401" width="350" height="76.732" fill="none"/>
    </clipPath>
  </defs>
  <g id="Group_1428" data-name="Group 1428" clip-path="url(#clip-path)">
    <path id="Path_570" data-name="Path 570" d="M63.386,39.365c.549,0,13.346,0,13.346-1s-12.8-1-13.346-1H56.155a17.7,17.7,0,0,0-1.061-5.141l.455-.189c.371-.154,9.017-3.735,8.738-4.409s-8.925,2.908-9.3,3.062l-.455.187a17.873,17.873,0,0,0-3.07-4.581l.353-.353c.284-.283,6.9-6.9,6.386-7.416s-7.133,6.1-7.417,6.385l-.353.353A17.882,17.882,0,0,0,45.854,22.2l.189-.453c.153-.371,3.734-9.017,3.06-9.3s-4.255,8.367-4.409,8.737l-.188.454a17.7,17.7,0,0,0-5.142-1.06v-7.23c0-.548,0-13.346-1-13.346s-1,12.8-1,13.346v7.23a17.68,17.68,0,0,0-5.142,1.06l-.189-.454c-.153-.37-3.734-9.017-4.409-8.737s2.908,8.925,3.062,9.3l.188.453a17.863,17.863,0,0,0-4.581,3.07l-.353-.353c-.283-.284-6.9-6.9-7.417-6.385s6.1,7.133,6.386,7.416l.352.353a17.876,17.876,0,0,0-3.07,4.581l-.453-.187c-.371-.154-9.017-3.735-9.3-3.062s8.368,4.256,8.738,4.409l.453.188a17.68,17.68,0,0,0-1.061,5.142h-7.23c-.549,0-13.347,0-13.347,1s12.8,1,13.347,1h7.23a17.68,17.68,0,0,0,1.061,5.141l-.453.189c-.371.152-9.017,3.734-8.738,4.409s8.925-2.907,9.3-3.061l.454-.188a17.864,17.864,0,0,0,3.07,4.581l-.353.353c-.284.284-6.9,6.9-6.386,7.417s7.133-6.1,7.417-6.386l.353-.353a17.9,17.9,0,0,0,4.581,3.07l-.189.454c-.154.37-3.735,9.017-3.062,9.3s4.256-8.367,4.409-8.738l.189-.454a17.728,17.728,0,0,0,5.142,1.061v7.231c0,.548,0,13.346,1,13.346s1-12.8,1-13.346V56.156a17.694,17.694,0,0,0,5.141-1.061l.189.455c.154.371,3.735,9.017,4.409,8.738s-2.907-8.926-3.06-9.3l-.189-.455a17.879,17.879,0,0,0,4.581-3.07l.353.353c.284.284,6.9,6.9,7.417,6.386s-6.1-7.133-6.386-7.417l-.353-.353a17.882,17.882,0,0,0,3.07-4.581l.455.189c.37.154,9.017,3.735,9.3,3.061s-8.367-4.256-8.738-4.409l-.455-.189a17.728,17.728,0,0,0,1.061-5.141Zm-8.238-2H48.61a10.239,10.239,0,0,0-.483-2.256l6.037-2.5a16.708,16.708,0,0,1,.983,4.757m-1.542-6.1-6.041,2.5a10.314,10.314,0,0,0-1.429-2.139l4.618-4.617a16.877,16.877,0,0,1,2.851,4.255m-3.882-5.286L45.1,30.6a10.279,10.279,0,0,0-2.139-1.429l2.5-6.04a16.894,16.894,0,0,1,4.255,2.851m-5.6-3.411-2.5,6.038a10.23,10.23,0,0,0-2.256-.483V21.584a16.732,16.732,0,0,1,4.757.983m-6.752-.983v6.539a10.231,10.231,0,0,0-2.256.483l-2.5-6.038a16.7,16.7,0,0,1,4.757-.983m-6.105,1.542,2.5,6.041A10.274,10.274,0,0,0,31.628,30.6l-4.619-4.619a16.877,16.877,0,0,1,4.255-2.851m-5.287,3.883,4.62,4.618a10.345,10.345,0,0,0-1.429,2.139l-6.041-2.5a16.9,16.9,0,0,1,2.851-4.255m-3.409,5.6,6.038,2.5a10.239,10.239,0,0,0-.483,2.256H21.583a16.708,16.708,0,0,1,.984-4.757m-.984,6.753h6.539a10.224,10.224,0,0,0,.483,2.255l-6.037,2.5a16.694,16.694,0,0,1-.985-4.757m1.543,6.1,6.041-2.5A10.341,10.341,0,0,0,30.6,45.105l-4.619,4.618a16.873,16.873,0,0,1-2.851-4.254m3.883,5.286,4.619-4.618a10.274,10.274,0,0,0,2.138,1.429l-2.5,6.04a16.843,16.843,0,0,1-4.255-2.851m5.6,3.41,2.5-6.038a10.19,10.19,0,0,0,2.256.483v6.538a16.682,16.682,0,0,1-4.757-.983m6.752.983V48.611a10.19,10.19,0,0,0,2.256-.483l2.5,6.038a16.682,16.682,0,0,1-4.757.983m6.1-1.542-2.5-6.04A10.279,10.279,0,0,0,45.1,46.137l4.618,4.618a16.9,16.9,0,0,1-4.255,2.851m5.286-3.884-4.617-4.617a10.309,10.309,0,0,0,1.429-2.138l6.041,2.5a16.856,16.856,0,0,1-2.852,4.254m3.41-5.6-6.037-2.5a10.224,10.224,0,0,0,.483-2.255h6.537a16.663,16.663,0,0,1-.983,4.756M96.423,33.074c-.913,1.111-.449,1.926.751,2.518a33.64,33.64,0,0,1,3.88,1.47c1.965,1.145,2.989,2.691,1.965,6.542s-4.958,5.612-8.767,5.94S87.163,47,87.163,47l3.2-4.343c1.8,2.335,6.128,2.929,6.88.676s-2.109-2.679-4.9-3.593c-1.9-.62-2.759-3.024-1.981-6.137s3.032-5.94,7.867-5.982,6.473,1.762,6.473,1.762l-3.033,4.22c-.737-.574-3.728-2.376-5.243-.533m16.048-.106-.531,3.19h6.344l-.961,4.765h-6.175l-.55,3.3h6.686l-.96,4.765H104.3l3.458-20.79h12.182l-.96,4.765Zm24.553,1.788c.95-5.609-3.538-6.552-6.6-6.552h-7.695l-3.458,20.79h5.51l1.232-7.406,3.822,7.406h6.907l-5.382-8.52a6.647,6.647,0,0,0,5.667-5.717m-5.808-.285c-.095,2.161-1.766,2.944-3.429,2.944H126.7l.819-4.918c1.483.007,3.771.178,3.692,1.974m74.236,14.522h-5.509L203.4,28.2h5.509ZM171.094,28.2h-7.959l-3.458,20.79h5.509l1.11-6.672h2.742c2.527,0,7.954-.422,8.944-6.738S174.29,28.2,171.094,28.2m-2.7,9.6h-1.343l.816-4.9c.751.017,1.708.057,2.683.121a1.621,1.621,0,0,1,1.574,1.928c-.1,2.093-1.554,2.851-3.73,2.851m-16.156,11.3h5.956l-4.377-21.017h-6.124L136.182,49.106h5.956l2.06-3.763h7.364Zm-5.748-7.939,3.268-5.972,1.065,5.972ZM200.115,28.2l-3.459,20.79h-5.51l1.407-8.455h-7.714l-1.406,8.455h-5.509l3.458-20.79h5.509l-1.357,8.158h7.714l1.357-8.158Zm108.874,20.73h-6.149l-.01.059h-5.51l3.458-20.79h5.51l-2.754,16.554h6.2Zm15.9-16.555h-4.211l-2.764,16.614h-5.509l2.764-16.614h-4.823l.75-4.176h14.543Zm-58.746-4.653A13.034,13.034,0,0,0,253.5,38.6c-.817,6,3.518,10.872,9.682,10.872A13.034,13.034,0,0,0,275.824,38.6c.817-6-3.518-10.872-9.681-10.872m4.1,11.216a6.512,6.512,0,0,1-6.529,5.249,4.785,4.785,0,0,1-4.372-5.937A6.512,6.512,0,0,1,265.869,33a4.785,4.785,0,0,1,4.372,5.937m-47.026,9.6a12.277,12.277,0,0,1-4.616.923c-6.165,0-10.5-4.867-9.682-10.872a13.034,13.034,0,0,1,12.641-10.872,10.357,10.357,0,0,1,4.922,1.2l-1.141,6.857A4.648,4.648,0,0,0,221.284,33a6.512,6.512,0,0,0-6.529,5.249,4.786,4.786,0,0,0,4.373,5.937,6.3,6.3,0,0,0,5.227-2.49Zm26.164,0a12.28,12.28,0,0,1-4.616.923c-6.165,0-10.5-4.867-9.682-10.872a13.034,13.034,0,0,1,12.64-10.872,10.358,10.358,0,0,1,4.922,1.2L251.5,35.785A4.648,4.648,0,0,0,247.448,33a6.513,6.513,0,0,0-6.529,5.249,4.786,4.786,0,0,0,4.374,5.937,6.3,6.3,0,0,0,5.227-2.49Zm32.2-1.662A3.863,3.863,0,0,1,277.7,50a2.838,2.838,0,0,1-2.593-3.521,3.861,3.861,0,0,1,3.872-3.114,2.839,2.839,0,0,1,2.594,3.521m68.36,0A3.863,3.863,0,0,1,346.064,50a2.84,2.84,0,0,1-2.594-3.521,3.863,3.863,0,0,1,3.874-3.114,2.838,2.838,0,0,1,2.593,3.521M283.58,53.1h-3.486l4.892-9.108h4.892Zm58.865-22.3c-1.983-2.3-4.931-2.592-7.075-2.592h-6.983l-3.458,20.79h6.207c2.2,0,5.307-.241,7.558-1.528s5.161-3.749,6.217-9.22c.59-3.055-.482-5.146-2.466-7.451m-3.484,7.8c-.911,5.062-4.437,5.672-6.111,5.813-.485.041-1.071.056-1.66.06l1.91-11.478h1.2c1.286,0,5.575.543,4.664,5.605" transform="translate(0 0)" fill="#8d8686"/>
  </g>
</svg>
