<svg xmlns="http://www.w3.org/2000/svg" width="38" height="38" viewBox="0 0 38 38">
  <g id="Twitter_Social_Icon_Circle_Color" transform="translate(19 19)">
    <g id="Twitter_Social_Icon_Circle_Color-2" data-name="Twitter_Social_Icon_Circle_Color" transform="translate(-19 -19)">
      <g id="Dark_Blue" transform="translate(0 0)">
        <circle id="Ellipse_26" data-name="Ellipse 26" cx="19" cy="19" r="19" transform="translate(0 0)" fill="#1da1f2"/>
      </g>
      <g id="Logo__x2014__FIXED" transform="translate(8.62 10.979)">
        <path id="Path_607" data-name="Path 607" d="M96.664,132.548a12.877,12.877,0,0,0,12.965-12.965c0-.2,0-.4-.009-.586a9.335,9.335,0,0,0,2.277-2.362,9.248,9.248,0,0,1-2.617.718,4.554,4.554,0,0,0,2-2.523,9.227,9.227,0,0,1-2.892,1.106,4.559,4.559,0,0,0-7.881,3.118,4.176,4.176,0,0,0,.123,1.039,12.926,12.926,0,0,1-9.393-4.762,4.554,4.554,0,0,0,1.417,6.076,4.476,4.476,0,0,1-2.06-.567v.057a4.561,4.561,0,0,0,3.657,4.47,4.542,4.542,0,0,1-1.2.161,4.351,4.351,0,0,1-.86-.085,4.55,4.55,0,0,0,4.252,3.166,9.159,9.159,0,0,1-5.66,1.947,8.286,8.286,0,0,1-1.087-.066,12.7,12.7,0,0,0,6.964,2.06" transform="translate(-89.7 -114.5)" fill="#fff"/>
      </g>
    </g>
  </g>
</svg>
