<svg id="Dr_Stretch" data-name="Dr_Stretch" width="597" height="149" xmlns="http://www.w3.org/2000/svg" viewBox="0 0 596.84 149.08"><defs><style>.cls-1{fill:#231f20;}</style></defs><path class="cls-1" d="M195.8,269.33a58.51,58.51,0,0,1-2.79,19,34.44,34.44,0,0,1-8.13,13.47,33.46,33.46,0,0,1-13.11,8,57.46,57.46,0,0,1-18.52,2.66H135.51a4.62,4.62,0,0,1-2.82-1,4.17,4.17,0,0,1-1.33-3.53V233.2a4.17,4.17,0,0,1,1.33-3.53,4.62,4.62,0,0,1,2.82-1h19q10.88,0,18.39,2.82a33.66,33.66,0,0,1,12.6,8.09,34.65,34.65,0,0,1,7.7,12.79A51.28,51.28,0,0,1,195.8,269.33Zm-11.72.45a45.8,45.8,0,0,0-1.69-12.66A27.14,27.14,0,0,0,177.11,247a24.33,24.33,0,0,0-9.09-6.67q-5.51-2.4-14.19-2.4H142.5v65.21H154a39.73,39.73,0,0,0,13.54-2,22.15,22.15,0,0,0,9.19-6.15,26.71,26.71,0,0,0,5.54-10.39A52.6,52.6,0,0,0,184.08,269.78Z" transform="translate(-131.36 -221.35)"/><path class="cls-1" d="M245.79,256.38c0,.95,0,1.75-.07,2.39a5.85,5.85,0,0,1-.26,1.53,2.38,2.38,0,0,1-.48.84,1.13,1.13,0,0,1-.81.29,3.71,3.71,0,0,1-1.27-.29c-.49-.2-1.05-.39-1.68-.58s-1.33-.38-2.1-.56a11.86,11.86,0,0,0-2.53-.25,8.16,8.16,0,0,0-3.17.64,12.56,12.56,0,0,0-3.27,2.14,26.61,26.61,0,0,0-3.6,4q-1.87,2.46-4.14,6v38.34a1.47,1.47,0,0,1-.26.87,2,2,0,0,1-.84.62,5.85,5.85,0,0,1-1.62.38,21.4,21.4,0,0,1-2.65.13,21,21,0,0,1-2.6-.13,6.3,6.3,0,0,1-1.65-.38,1.8,1.8,0,0,1-.84-.62,1.61,1.61,0,0,1-.22-.87V252.56a1.82,1.82,0,0,1,.19-.88,1.74,1.74,0,0,1,.78-.64,4.09,4.09,0,0,1,1.49-.39,21.81,21.81,0,0,1,2.39-.1,22.27,22.27,0,0,1,2.37.1,3.61,3.61,0,0,1,1.45.39,2,2,0,0,1,.75.64,1.62,1.62,0,0,1,.22.88V261a46.52,46.52,0,0,1,4.5-5.7,25.05,25.05,0,0,1,4-3.46,12.26,12.26,0,0,1,3.72-1.75,14.73,14.73,0,0,1,3.72-.49c.56,0,1.2,0,1.91.1a19.24,19.24,0,0,1,2.24.36,17.93,17.93,0,0,1,2.1.58,4.4,4.4,0,0,1,1.33.65,1.84,1.84,0,0,1,.52.61,4.28,4.28,0,0,1,.22.75,7.43,7.43,0,0,1,.13,1.32C245.78,254.6,245.79,255.39,245.79,256.38Z" transform="translate(-131.36 -221.35)"/><path class="cls-1" d="M271.75,305.4c0,3.06-.5,5.1-1.52,6.12s-2.86,1.52-5.54,1.52-4.38-.5-5.37-1.49-1.49-3-1.49-6,.51-5.1,1.52-6.12,2.86-1.52,5.54-1.52,4.38.5,5.37,1.49S271.75,302.42,271.75,305.4Z" transform="translate(-131.36 -221.35)"/><path class="cls-1" d="M337.67,289a24.23,24.23,0,0,1-2.17,10.49,22.31,22.31,0,0,1-6,7.8,26.1,26.1,0,0,1-9.06,4.83,37.7,37.7,0,0,1-11.24,1.62,39.64,39.64,0,0,1-7.8-.72,42.15,42.15,0,0,1-6.41-1.74,31.07,31.07,0,0,1-4.73-2.14,12.24,12.24,0,0,1-2.65-1.88,4.74,4.74,0,0,1-1.11-2,12,12,0,0,1-.35-3.21,17.08,17.08,0,0,1,.13-2.36,5.14,5.14,0,0,1,.39-1.52,1.53,1.53,0,0,1,1.55-1,5.34,5.34,0,0,1,2.56,1.1A39.77,39.77,0,0,0,301.25,303a28.42,28.42,0,0,0,8.45,1.14,21.78,21.78,0,0,0,6.64-1,15.74,15.74,0,0,0,5.18-2.76,11.88,11.88,0,0,0,3.33-4.37,14.14,14.14,0,0,0,1.17-5.89,11.07,11.07,0,0,0-1.62-6.09,16.33,16.33,0,0,0-4.28-4.43,37,37,0,0,0-6.05-3.5l-7-3.24a73.8,73.8,0,0,1-6.93-3.66,29.34,29.34,0,0,1-6-4.72,22.07,22.07,0,0,1-4.31-6.38,21.23,21.23,0,0,1-1.65-8.78,22,22,0,0,1,1.91-9.35,19.26,19.26,0,0,1,5.31-6.9,23.75,23.75,0,0,1,8.1-4.24,34,34,0,0,1,10.13-1.46,32.36,32.36,0,0,1,5.6.49,37.49,37.49,0,0,1,5.31,1.29A29.87,29.87,0,0,1,329,231a11.53,11.53,0,0,1,2.55,1.62,4.88,4.88,0,0,1,.81,1,3.71,3.71,0,0,1,.33.9,9.84,9.84,0,0,1,.19,1.33c0,.52.07,1.19.07,2s0,1.47-.1,2.07a8.23,8.23,0,0,1-.29,1.52,2,2,0,0,1-.55.91,1.28,1.28,0,0,1-.81.29,5.18,5.18,0,0,1-2.24-.91q-1.51-.9-3.72-2a34,34,0,0,0-5.21-2.07,22.93,22.93,0,0,0-6.77-.94,18,18,0,0,0-6.09.94,12.67,12.67,0,0,0-4.27,2.49,10.06,10.06,0,0,0-2.53,3.7,12.24,12.24,0,0,0-.84,4.53,10.9,10.9,0,0,0,1.62,6,16.72,16.72,0,0,0,4.31,4.47,38.63,38.63,0,0,0,6.12,3.56c2.28,1.08,4.62,2.17,7,3.27s4.71,2.31,7,3.63a28.93,28.93,0,0,1,6.12,4.66,21.23,21.23,0,0,1,4.34,6.35A20.84,20.84,0,0,1,337.67,289Z" transform="translate(-131.36 -221.35)"/><path class="cls-1" d="M382.68,306.56a13.66,13.66,0,0,1-.26,3,3.23,3.23,0,0,1-.78,1.62,4.87,4.87,0,0,1-1.55,1,13.23,13.23,0,0,1-2.37.75c-.88.19-1.82.35-2.81.48a23.07,23.07,0,0,1-3,.2,22.42,22.42,0,0,1-7.77-1.2,12.55,12.55,0,0,1-5.31-3.63,14.9,14.9,0,0,1-3-6.15,36,36,0,0,1-.94-8.77V259.75h-8.16a1.76,1.76,0,0,1-1.56-1,7.34,7.34,0,0,1-.58-3.37,11.92,11.92,0,0,1,.16-2.07,6.23,6.23,0,0,1,.42-1.39,1.66,1.66,0,0,1,.68-.78,2,2,0,0,1,.94-.23h8.1V237a1.68,1.68,0,0,1,.22-.85,2,2,0,0,1,.85-.67,5.44,5.44,0,0,1,1.65-.43,22.79,22.79,0,0,1,2.59-.13,23.44,23.44,0,0,1,2.65.13,5.07,5.07,0,0,1,1.62.43,2.11,2.11,0,0,1,.84.67,1.47,1.47,0,0,1,.26.85v13.85h15a1.78,1.78,0,0,1,.91.23,1.9,1.9,0,0,1,.68.78,4.66,4.66,0,0,1,.42,1.39,14.81,14.81,0,0,1,.13,2.07,7.19,7.19,0,0,1-.59,3.37,1.74,1.74,0,0,1-1.55,1h-15v32.5c0,4,.6,7.05,1.78,9.1s3.32,3.08,6.38,3.08a10.76,10.76,0,0,0,2.66-.3,20.94,20.94,0,0,0,2.07-.61c.6-.22,1.12-.42,1.55-.62a3,3,0,0,1,1.17-.29,1.22,1.22,0,0,1,.61.17,1,1,0,0,1,.46.61,8.71,8.71,0,0,1,.29,1.23A13,13,0,0,1,382.68,306.56Z" transform="translate(-131.36 -221.35)"/><path class="cls-1" d="M430.86,256.38c0,.95,0,1.75-.07,2.39a5.85,5.85,0,0,1-.26,1.53,2.38,2.38,0,0,1-.48.84,1.13,1.13,0,0,1-.81.29,3.71,3.71,0,0,1-1.27-.29c-.49-.2-1.05-.39-1.68-.58s-1.33-.38-2.1-.56a11.86,11.86,0,0,0-2.53-.25,8.16,8.16,0,0,0-3.17.64,12.56,12.56,0,0,0-3.27,2.14,26.08,26.08,0,0,0-3.6,4q-1.87,2.46-4.14,6v38.34a1.47,1.47,0,0,1-.26.87,2,2,0,0,1-.84.62,5.85,5.85,0,0,1-1.62.38,21.47,21.47,0,0,1-2.66.13,20.79,20.79,0,0,1-2.59-.13,6.3,6.3,0,0,1-1.65-.38,1.8,1.8,0,0,1-.84-.62,1.61,1.61,0,0,1-.23-.87V252.56a1.82,1.82,0,0,1,.2-.88,1.74,1.74,0,0,1,.78-.64,4.08,4.08,0,0,1,1.48-.39,28.37,28.37,0,0,1,4.76,0,3.61,3.61,0,0,1,1.46.39,2.12,2.12,0,0,1,.75.64,1.62,1.62,0,0,1,.22.88V261a46.52,46.52,0,0,1,4.5-5.7,25.05,25.05,0,0,1,4-3.46,12.26,12.26,0,0,1,3.72-1.75,14.73,14.73,0,0,1,3.72-.49c.56,0,1.2,0,1.91.1a19.24,19.24,0,0,1,2.24.36,18.5,18.5,0,0,1,2.1.58,4.4,4.4,0,0,1,1.33.65,1.84,1.84,0,0,1,.52.61,4.28,4.28,0,0,1,.22.75,7.43,7.43,0,0,1,.13,1.32C430.84,254.6,430.86,255.39,430.86,256.38Z" transform="translate(-131.36 -221.35)"/><path class="cls-1" d="M492.76,279.17a4.47,4.47,0,0,1-1.27,3.6,4.36,4.36,0,0,1-2.89,1.06H450.22a36,36,0,0,0,1,8.75,16.86,16.86,0,0,0,3.26,6.67,14.6,14.6,0,0,0,5.92,4.27,23.65,23.65,0,0,0,8.91,1.49,36.71,36.71,0,0,0,7.42-.68,43.89,43.89,0,0,0,5.63-1.52c1.58-.56,2.88-1.07,3.9-1.52a6.27,6.27,0,0,1,2.31-.68,1.5,1.5,0,0,1,.82.22,1.45,1.45,0,0,1,.55.68,4.69,4.69,0,0,1,.29,1.27,15.69,15.69,0,0,1,.1,2,12.41,12.41,0,0,1-.07,1.46,10,10,0,0,1-.16,1.1,2.74,2.74,0,0,1-.32.87,4,4,0,0,1-.58.75,9.55,9.55,0,0,1-2.11,1.16,30.79,30.79,0,0,1-4.53,1.59,62.74,62.74,0,0,1-6.44,1.39,47.19,47.19,0,0,1-7.81.62,36,36,0,0,1-12.59-2,23.28,23.28,0,0,1-9.1-6,25.39,25.39,0,0,1-5.57-9.91A46.22,46.22,0,0,1,439.14,282a43.48,43.48,0,0,1,1.95-13.5,28.42,28.42,0,0,1,5.6-10.17,24.38,24.38,0,0,1,8.84-6.41,28.94,28.94,0,0,1,11.59-2.24,28,28,0,0,1,11.69,2.21,22,22,0,0,1,7.93,5.92,23.84,23.84,0,0,1,4.56,8.74,38,38,0,0,1,1.46,10.72ZM482,276q.19-8.42-3.74-13.21T466.57,258a15.38,15.38,0,0,0-7,1.49,15.07,15.07,0,0,0-5,3.95,18,18,0,0,0-3.13,5.73,24,24,0,0,0-1.23,6.83Z" transform="translate(-131.36 -221.35)"/><path class="cls-1" d="M539.32,306.56a13.66,13.66,0,0,1-.26,3,3.23,3.23,0,0,1-.78,1.62,4.87,4.87,0,0,1-1.55,1,13.37,13.37,0,0,1-2.36.75q-1.33.28-2.82.48a23.07,23.07,0,0,1-3,.2,22.42,22.42,0,0,1-7.77-1.2,12.55,12.55,0,0,1-5.31-3.63,14.9,14.9,0,0,1-3-6.15,36,36,0,0,1-.94-8.77V259.75h-8.16a1.74,1.74,0,0,1-1.55-1,7.19,7.19,0,0,1-.59-3.37,10.92,10.92,0,0,1,.17-2.07,5.33,5.33,0,0,1,.42-1.39,1.56,1.56,0,0,1,.68-.78,2,2,0,0,1,.94-.23h8.09V237a1.6,1.6,0,0,1,.23-.85,1.86,1.86,0,0,1,.84-.67,5.44,5.44,0,0,1,1.65-.43,22.79,22.79,0,0,1,2.59-.13,23.44,23.44,0,0,1,2.65.13,5.07,5.07,0,0,1,1.62.43,2.11,2.11,0,0,1,.84.67,1.47,1.47,0,0,1,.26.85v13.85h15a1.78,1.78,0,0,1,.91.23,1.9,1.9,0,0,1,.68.78,4.66,4.66,0,0,1,.42,1.39,13.42,13.42,0,0,1,.13,2.07,7.34,7.34,0,0,1-.58,3.37,1.76,1.76,0,0,1-1.56,1h-15v32.5c0,4,.6,7.05,1.78,9.1s3.32,3.08,6.38,3.08a10.7,10.7,0,0,0,2.66-.3,20.16,20.16,0,0,0,2.07-.61c.6-.22,1.12-.42,1.55-.62a3,3,0,0,1,1.17-.29,1.29,1.29,0,0,1,.62.17,1.07,1.07,0,0,1,.45.61,7.51,7.51,0,0,1,.29,1.23A11.75,11.75,0,0,1,539.32,306.56Z" transform="translate(-131.36 -221.35)"/><path class="cls-1" d="M595.33,302c0,.73,0,1.37-.06,1.91a7.21,7.21,0,0,1-.23,1.36,5.44,5.44,0,0,1-.39,1,6.24,6.24,0,0,1-1,1.23,16,16,0,0,1-2.76,2,26.51,26.51,0,0,1-4.37,2.13,32.87,32.87,0,0,1-5.27,1.52,29.3,29.3,0,0,1-5.9.59,27.93,27.93,0,0,1-11.13-2.08,21,21,0,0,1-8.13-6.05,27.61,27.61,0,0,1-5-9.78,47.33,47.33,0,0,1-1.71-13.37,46.28,46.28,0,0,1,2.1-14.8,27.83,27.83,0,0,1,5.76-10.13,22.74,22.74,0,0,1,8.62-5.86,29.57,29.57,0,0,1,10.71-1.91,27.5,27.5,0,0,1,5.41.52,28.81,28.81,0,0,1,4.82,1.36,21.37,21.37,0,0,1,3.92,1.94,15.16,15.16,0,0,1,2.5,1.88,8.65,8.65,0,0,1,1.06,1.23,4.23,4.23,0,0,1,.49,1.07,6.74,6.74,0,0,1,.26,1.39c0,.52.06,1.16.06,1.94a7.59,7.59,0,0,1-.58,3.53,1.66,1.66,0,0,1-1.42,1,3.69,3.69,0,0,1-2.24-1.06,35.66,35.66,0,0,0-3.2-2.37,24.48,24.48,0,0,0-4.7-2.36,18,18,0,0,0-6.51-1.07q-7.7,0-11.81,5.92t-4.12,17.2a40.74,40.74,0,0,0,1.07,9.87,20.38,20.38,0,0,0,3.14,7.09,12.87,12.87,0,0,0,5.09,4.24,16.18,16.18,0,0,0,6.89,1.4,16.65,16.65,0,0,0,6.48-1.17A27.4,27.4,0,0,0,588,300.7c1.36-.92,2.51-1.77,3.43-2.52a4.09,4.09,0,0,1,2.17-1.14,1.22,1.22,0,0,1,.78.26,2,2,0,0,1,.55.88,6.83,6.83,0,0,1,.33,1.55C595.3,300.36,595.33,301.1,595.33,302Z" transform="translate(-131.36 -221.35)"/><path class="cls-1" d="M659.7,310.84a1.47,1.47,0,0,1-.26.87,2,2,0,0,1-.84.62,5.85,5.85,0,0,1-1.62.38,20.79,20.79,0,0,1-2.59.13,21.47,21.47,0,0,1-2.66-.13,5.85,5.85,0,0,1-1.62-.38,2.11,2.11,0,0,1-.84-.62,1.47,1.47,0,0,1-.26-.87V276.71a34.05,34.05,0,0,0-.77-8,16.62,16.62,0,0,0-2.27-5.24,9.85,9.85,0,0,0-3.85-3.37,12.2,12.2,0,0,0-5.47-1.17,13.79,13.79,0,0,0-8,2.85,43.31,43.31,0,0,0-8.42,8.36v40.73a1.47,1.47,0,0,1-.26.87,2,2,0,0,1-.84.62,5.85,5.85,0,0,1-1.62.38,21.47,21.47,0,0,1-2.66.13,20.79,20.79,0,0,1-2.59-.13,6.3,6.3,0,0,1-1.65-.38,1.8,1.8,0,0,1-.84-.62,1.61,1.61,0,0,1-.23-.87V224.32a1.77,1.77,0,0,1,.23-.9,1.66,1.66,0,0,1,.84-.65,6.68,6.68,0,0,1,1.65-.39,22.92,22.92,0,0,1,2.59-.13,23.63,23.63,0,0,1,2.66.13,6.19,6.19,0,0,1,1.62.39,1.85,1.85,0,0,1,.84.65,1.61,1.61,0,0,1,.26.9v34.91a34.22,34.22,0,0,1,9.26-7.22,20.55,20.55,0,0,1,9.39-2.37,21.93,21.93,0,0,1,9.81,2,17.64,17.64,0,0,1,6.44,5.28,21,21,0,0,1,3.53,7.73,46.54,46.54,0,0,1,1.07,10.72Z" transform="translate(-131.36 -221.35)"/><path class="cls-1" d="M728.21,246.41a25.22,25.22,0,0,1-7.38,18,25.69,25.69,0,0,1-8.1,5.37,25.24,25.24,0,0,1-10,2,26.24,26.24,0,0,1-10.14-1.92,24.14,24.14,0,0,1-8-5.24,23.83,23.83,0,0,1-5.21-7.93,26.51,26.51,0,0,1-1.88-10.1A24.9,24.9,0,0,1,693,223.29a25.52,25.52,0,0,1,10-1.94,26.7,26.7,0,0,1,10.13,1.87,23.37,23.37,0,0,1,13.18,13.15A26.35,26.35,0,0,1,728.21,246.41Zm-5.83.38a23,23,0,0,0-1.46-8.35,19.21,19.21,0,0,0-4-6.44,17.45,17.45,0,0,0-6.16-4.11,20.52,20.52,0,0,0-7.7-1.43A20,20,0,0,0,695,228a18.62,18.62,0,0,0-6.19,4.27,19,19,0,0,0-4,6.31,21.07,21.07,0,0,0-1.39,7.68,22.8,22.8,0,0,0,1.45,8.29,19.23,19.23,0,0,0,4,6.44,17.85,17.85,0,0,0,6.15,4.14,20.23,20.23,0,0,0,7.71,1.46,19.9,19.9,0,0,0,8.09-1.59,18.81,18.81,0,0,0,6.19-4.27,19.07,19.07,0,0,0,4-6.28A21.07,21.07,0,0,0,722.38,246.79Zm-7.64,11.86a1.12,1.12,0,0,1-.1.48.62.62,0,0,1-.48.32,7.83,7.83,0,0,1-1.1.17q-.72.06-1.95.06c-.73,0-1.32,0-1.78-.06a4.47,4.47,0,0,1-1.1-.23,1.51,1.51,0,0,1-.65-.45,2.17,2.17,0,0,1-.35-.81l-1.36-4.47a7.59,7.59,0,0,0-1.85-3.34,4.76,4.76,0,0,0-3.2-.94h-1.75v9.07a1,1,0,0,1-.55,1,7.69,7.69,0,0,1-2.56.26,8.64,8.64,0,0,1-2.65-.26,1,1,0,0,1-.65-1V235.2a3.23,3.23,0,0,1,.71-2.23,2.7,2.7,0,0,1,2.14-.81H703a20.74,20.74,0,0,1,4.57.45,9.75,9.75,0,0,1,3.37,1.43,6.36,6.36,0,0,1,2.1,2.43,7.85,7.85,0,0,1,.71,3.46,6.59,6.59,0,0,1-1.68,4.82,9.26,9.26,0,0,1-4.53,2.43,8.35,8.35,0,0,1,2.91,1.75,9.69,9.69,0,0,1,2.33,3.69l1.56,4.15A9.32,9.32,0,0,1,714.74,258.65Zm-8-17.94a5,5,0,0,0-.19-1.36,2.48,2.48,0,0,0-.75-1.14,3.72,3.72,0,0,0-1.46-.74,8.46,8.46,0,0,0-2.26-.26h-3v7.25h2.85c1.81,0,3.06-.34,3.75-1A3.69,3.69,0,0,0,706.71,240.71Z" transform="translate(-131.36 -221.35)"/><path class="cls-1" d="M278.2,354.39a1.09,1.09,0,0,1,1-.61,1.44,1.44,0,0,1,.58.12,40.78,40.78,0,0,1,7.51,4.46,1.42,1.42,0,0,1,.62,1.1,1.25,1.25,0,0,1-1.23,1.25,1.47,1.47,0,0,1-.85-.3,41.37,41.37,0,0,0-7-4.4,1.59,1.59,0,0,1-.64-.58V369.3a1.22,1.22,0,0,1-2.44,0V346a1.22,1.22,0,0,1,2.44,0Zm5.68-6.45a.91.91,0,0,1,.92-.85,1,1,0,0,1,.64.24,16.43,16.43,0,0,1,2.69,3,1.14,1.14,0,0,1,.24.7.91.91,0,0,1-.91.94.93.93,0,0,1-.77-.42,23.21,23.21,0,0,0-2.5-2.94A.92.92,0,0,1,283.88,347.94Zm2.75-2.23a.91.91,0,0,1,.92-.85,1,1,0,0,1,.67.24,18.69,18.69,0,0,1,2.63,2.87,1.34,1.34,0,0,1,.24.71.94.94,0,0,1-.88.94.91.91,0,0,1-.71-.39,24.25,24.25,0,0,0-2.56-2.88A.86.86,0,0,1,286.63,345.71Z" transform="translate(-131.36 -221.35)"/><path class="cls-1" d="M315.65,349.32c2,0,3,.85,3,2.35a4.1,4.1,0,0,1-.19,1.16A29.89,29.89,0,0,1,304.78,370a1.68,1.68,0,0,1-.8.21,1.14,1.14,0,0,1-1.16-1.13,1.47,1.47,0,0,1,.86-1.25A27.28,27.28,0,0,0,316,352.37a1.51,1.51,0,0,0,.06-.37c0-.36-.27-.54-.89-.54l-7.79.06a29.89,29.89,0,0,1-5,5.89,1.48,1.48,0,0,1-1,.43,1.09,1.09,0,0,1-1.13-1.07,1.41,1.41,0,0,1,.55-1.07,30.24,30.24,0,0,0,7.3-10.6,1.23,1.23,0,0,1,1.16-.82,1.19,1.19,0,0,1,1.22,1.13,1.63,1.63,0,0,1-.09.52,32.64,32.64,0,0,1-1.65,3.45Z" transform="translate(-131.36 -221.35)"/><path class="cls-1" d="M346.6,349c2,0,3,.89,3,2.41a4.64,4.64,0,0,1-.21,1.35c-2.05,7-7.85,13.87-14.85,17.41a1.76,1.76,0,0,1-.73.19,1.13,1.13,0,0,1-1.16-1.11,1.43,1.43,0,0,1,.88-1.22,28.18,28.18,0,0,0,8.47-6.78,29,29,0,0,0-4.74-3.79,1.17,1.17,0,0,1-.61-1,1.1,1.1,0,0,1,1.16-1.07,1.57,1.57,0,0,1,.77.21,28.47,28.47,0,0,1,4.88,3.73,23.86,23.86,0,0,0,3.49-7,2.49,2.49,0,0,0,.09-.58c0-.49-.31-.64-1-.64l-8.19.06a34.67,34.67,0,0,1-5.31,6.17,1.41,1.41,0,0,1-.95.4,1.07,1.07,0,0,1-1.1-1.07,1.5,1.5,0,0,1,.58-1.07,34.31,34.31,0,0,0,7.58-10.72,1.24,1.24,0,0,1,1.13-.8,1.19,1.19,0,0,1,1.22,1.17,1.47,1.47,0,0,1-.12.58A30.16,30.16,0,0,1,339.3,349Z" transform="translate(-131.36 -221.35)"/><path class="cls-1" d="M382.19,356.25a1.1,1.1,0,0,1,1.1,1.19,1.12,1.12,0,0,1-1.1,1.19H360a1.12,1.12,0,0,1-1.1-1.19,1.1,1.1,0,0,1,1.1-1.19Z" transform="translate(-131.36 -221.35)"/><path class="cls-1" d="M405.31,347.45c2.14,0,3.33.8,3.33,2.36a4.44,4.44,0,0,1-.33,1.61,29.12,29.12,0,0,1-4.16,7.31,45.12,45.12,0,0,1,8.59,7.63,1.7,1.7,0,0,1,.42,1.07,1.33,1.33,0,0,1-1.31,1.35,1.51,1.51,0,0,1-1.19-.65,47.37,47.37,0,0,0-7.91-7.66,35.14,35.14,0,0,1-10.33,8,1.62,1.62,0,0,1-.7.18,1.17,1.17,0,0,1-1.16-1.19,1.31,1.31,0,0,1,.82-1.19c6.45-3.21,12-8.8,14.48-15.33a2,2,0,0,0,.19-.68c0-.42-.37-.54-1.07-.51L393.7,350a1.1,1.1,0,0,1-1.16-1.13,1.14,1.14,0,0,1,1.13-1.19Z" transform="translate(-131.36 -221.35)"/><path class="cls-1" d="M431.55,354.08a1.12,1.12,0,0,1,1-.61,1.44,1.44,0,0,1,.58.12,41.17,41.17,0,0,1,7.52,4.46,1.45,1.45,0,0,1,.61,1.1,1.25,1.25,0,0,1-1.22,1.26,1.51,1.51,0,0,1-.86-.31,42.64,42.64,0,0,0-7-4.4,1.56,1.56,0,0,1-.65-.58V369a1.22,1.22,0,0,1-2.44,0V345.65a1.22,1.22,0,0,1,2.44,0Z" transform="translate(-131.36 -221.35)"/><path class="cls-1" d="M457.24,364.16c0,.89.25,1.29.86,1.29a2.09,2.09,0,0,0,.73-.13A33,33,0,0,0,472.7,356a1.53,1.53,0,0,1,1.13-.58,1.23,1.23,0,0,1,1.25,1.19,1.62,1.62,0,0,1-.45,1,37.32,37.32,0,0,1-15.16,10.05,5.87,5.87,0,0,1-1.92.33c-1.74,0-2.81-1.07-2.81-3.17V348a1.18,1.18,0,0,1,1.25-1.16,1.16,1.16,0,0,1,1.25,1.16Z" transform="translate(-131.36 -221.35)"/><path class="cls-1" d="M488.31,356.89a1.47,1.47,0,0,1,.12.58,1.15,1.15,0,0,1-1.16,1.13,1.18,1.18,0,0,1-1.1-.79,35.46,35.46,0,0,0-2.13-4.22,1.17,1.17,0,0,1-.19-.61A1.05,1.05,0,0,1,485,352a1.21,1.21,0,0,1,1,.55A33.4,33.4,0,0,1,488.31,356.89Zm13.41-5.28a1.17,1.17,0,0,1,1.19,1.5c-2,7.23-6.84,13.77-12.92,17.07a1.52,1.52,0,0,1-.67.19,1.09,1.09,0,0,1-1.07-1.11,1.16,1.16,0,0,1,.7-1.06,25.14,25.14,0,0,0,11.64-15.68A1.12,1.12,0,0,1,501.72,351.61Zm-7.36,3.79a1.2,1.2,0,0,1,.09.45,1.18,1.18,0,0,1-1.22,1.13,1,1,0,0,1-1-.76,27.67,27.67,0,0,0-2-4.22,1.07,1.07,0,0,1-.19-.54,1,1,0,0,1,1.1-.92,1.22,1.22,0,0,1,1,.55A22,22,0,0,1,494.36,355.4Z" transform="translate(-131.36 -221.35)"/><path class="cls-1" d="M525.73,353.69c0,.39,0,.82,0,1.22h9.66a1.16,1.16,0,0,1,0,2.32h-9.84c-.7,6-3.36,10-7.58,12.58a1.38,1.38,0,0,1-.82.25,1.13,1.13,0,0,1-1.13-1.13,1.35,1.35,0,0,1,.73-1.16c3.61-2.26,5.74-5.5,6.42-10.54H512.69a1.16,1.16,0,0,1,0-2.32h10.63c0-.43,0-.86,0-1.32V349.5c-2.41.37-4.89.64-7.15.76a1.15,1.15,0,0,1-1.34-1.13,1.18,1.18,0,0,1,1.25-1.16,59.41,59.41,0,0,0,14.94-2.72,1.72,1.72,0,0,1,.52-.09,1.15,1.15,0,0,1,1.19,1.16,1.39,1.39,0,0,1-1.1,1.29,44.36,44.36,0,0,1-5.93,1.46Z" transform="translate(-131.36 -221.35)"/></svg>